<mxfile host="Electron" modified="2024-05-14T14:42:41.489Z" agent="Mozilla/5.0 (Macintosh; Intel Mac OS X 10_15_7) AppleWebKit/537.36 (KHTML, like Gecko) draw.io/24.4.0 Chrome/120.0.6099.109 Electron/28.1.0 Safari/537.36" etag="J77_McIV1aoVVA5yoqZf" version="24.4.0" type="device">
  <diagram name="Page-1" id="k99TSKJfoNGT4C4ARBOw">
    <mxGraphModel dx="734" dy="473" grid="0" gridSize="10" guides="1" tooltips="1" connect="1" arrows="1" fold="1" page="1" pageScale="1" pageWidth="827" pageHeight="1169" math="0" shadow="0">
      <root>
        <mxCell id="0" />
        <mxCell id="1" parent="0" />
        <mxCell id="4F5iY0-6VZq2lURtkEXa-8" style="edgeStyle=orthogonalEdgeStyle;rounded=0;orthogonalLoop=1;jettySize=auto;html=1;entryX=0;entryY=0.5;entryDx=0;entryDy=0;" parent="1" source="CbytgTAqb2JmNf-wiuoh-1" target="4F5iY0-6VZq2lURtkEXa-3" edge="1">
          <mxGeometry relative="1" as="geometry" />
        </mxCell>
        <mxCell id="CbytgTAqb2JmNf-wiuoh-1" value="Processor Load" style="rounded=1;whiteSpace=wrap;html=1;fillColor=#d80073;fontColor=#ffffff;strokeColor=#A50040;arcSize=50;" parent="1" vertex="1">
          <mxGeometry x="140" y="267.5" width="120" height="30" as="geometry" />
        </mxCell>
        <mxCell id="4F5iY0-6VZq2lURtkEXa-9" style="edgeStyle=orthogonalEdgeStyle;rounded=0;orthogonalLoop=1;jettySize=auto;html=1;" parent="1" source="CbytgTAqb2JmNf-wiuoh-2" target="4F5iY0-6VZq2lURtkEXa-3" edge="1">
          <mxGeometry relative="1" as="geometry" />
        </mxCell>
        <mxCell id="CbytgTAqb2JmNf-wiuoh-2" value="Memory Usage" style="rounded=1;whiteSpace=wrap;html=1;fillColor=#d80073;fontColor=#ffffff;strokeColor=#A50040;arcSize=50;" parent="1" vertex="1">
          <mxGeometry x="140" y="307.5" width="120" height="30" as="geometry" />
        </mxCell>
        <mxCell id="4F5iY0-6VZq2lURtkEXa-14" style="edgeStyle=orthogonalEdgeStyle;rounded=0;orthogonalLoop=1;jettySize=auto;html=1;entryX=0;entryY=0.5;entryDx=0;entryDy=0;" parent="1" source="CbytgTAqb2JmNf-wiuoh-3" target="4F5iY0-6VZq2lURtkEXa-5" edge="1">
          <mxGeometry relative="1" as="geometry" />
        </mxCell>
        <mxCell id="CbytgTAqb2JmNf-wiuoh-3" value="Hardware Resources" style="rounded=1;whiteSpace=wrap;html=1;fillColor=#6a00ff;fontColor=#ffffff;strokeColor=#3700CC;arcSize=50;" parent="1" vertex="1">
          <mxGeometry x="400" y="285" width="120" height="30" as="geometry" />
        </mxCell>
        <mxCell id="4F5iY0-6VZq2lURtkEXa-10" style="edgeStyle=orthogonalEdgeStyle;rounded=0;orthogonalLoop=1;jettySize=auto;html=1;" parent="1" source="CbytgTAqb2JmNf-wiuoh-4" target="4F5iY0-6VZq2lURtkEXa-4" edge="1">
          <mxGeometry relative="1" as="geometry">
            <Array as="points">
              <mxPoint x="280" y="363" />
              <mxPoint x="280" y="421" />
            </Array>
          </mxGeometry>
        </mxCell>
        <mxCell id="CbytgTAqb2JmNf-wiuoh-4" value="Output Throughput" style="rounded=1;whiteSpace=wrap;html=1;fillColor=#d80073;fontColor=#ffffff;strokeColor=#A50040;arcSize=50;" parent="1" vertex="1">
          <mxGeometry x="140" y="348" width="120" height="30" as="geometry" />
        </mxCell>
        <mxCell id="4F5iY0-6VZq2lURtkEXa-11" style="edgeStyle=orthogonalEdgeStyle;rounded=0;orthogonalLoop=1;jettySize=auto;html=1;" parent="1" source="CbytgTAqb2JmNf-wiuoh-5" target="4F5iY0-6VZq2lURtkEXa-4" edge="1">
          <mxGeometry relative="1" as="geometry" />
        </mxCell>
        <mxCell id="CbytgTAqb2JmNf-wiuoh-5" value="Available Output Bandwidth" style="rounded=1;whiteSpace=wrap;html=1;fillColor=#d80073;fontColor=#ffffff;strokeColor=#A50040;arcSize=50;" parent="1" vertex="1">
          <mxGeometry x="140" y="388" width="120" height="30" as="geometry" />
        </mxCell>
        <mxCell id="4F5iY0-6VZq2lURtkEXa-17" style="edgeStyle=orthogonalEdgeStyle;rounded=0;orthogonalLoop=1;jettySize=auto;html=1;entryX=0;entryY=0.5;entryDx=0;entryDy=0;" parent="1" source="CbytgTAqb2JmNf-wiuoh-6" target="4F5iY0-6VZq2lURtkEXa-5" edge="1">
          <mxGeometry relative="1" as="geometry" />
        </mxCell>
        <mxCell id="CbytgTAqb2JmNf-wiuoh-6" value="Network Usage" style="rounded=1;whiteSpace=wrap;html=1;fillColor=#6a00ff;fontColor=#ffffff;strokeColor=#3700CC;arcSize=50;" parent="1" vertex="1">
          <mxGeometry x="400" y="406" width="120" height="30" as="geometry" />
        </mxCell>
        <mxCell id="CbytgTAqb2JmNf-wiuoh-18" value="Computing Load Percentage" style="rounded=1;whiteSpace=wrap;html=1;fillColor=#0050ef;fontColor=#ffffff;strokeColor=#001DBC;arcSize=50;" parent="1" vertex="1">
          <mxGeometry x="680" y="343" width="120" height="30" as="geometry" />
        </mxCell>
        <mxCell id="aIjLziB07p5wBq-0JNts-4" style="edgeStyle=orthogonalEdgeStyle;rounded=0;orthogonalLoop=1;jettySize=auto;html=1;exitX=0.5;exitY=1;exitDx=0;exitDy=0;" parent="1" source="CbytgTAqb2JmNf-wiuoh-18" target="CbytgTAqb2JmNf-wiuoh-18" edge="1">
          <mxGeometry relative="1" as="geometry" />
        </mxCell>
        <mxCell id="4F5iY0-6VZq2lURtkEXa-12" style="edgeStyle=orthogonalEdgeStyle;rounded=0;orthogonalLoop=1;jettySize=auto;html=1;" parent="1" source="4F5iY0-6VZq2lURtkEXa-3" target="CbytgTAqb2JmNf-wiuoh-3" edge="1">
          <mxGeometry relative="1" as="geometry" />
        </mxCell>
        <mxCell id="4F5iY0-6VZq2lURtkEXa-3" value="FS_HDR" style="rounded=0;whiteSpace=wrap;html=1;" parent="1" vertex="1">
          <mxGeometry x="299" y="280" width="76" height="40" as="geometry" />
        </mxCell>
        <mxCell id="4F5iY0-6VZq2lURtkEXa-13" style="edgeStyle=orthogonalEdgeStyle;rounded=0;orthogonalLoop=1;jettySize=auto;html=1;" parent="1" source="4F5iY0-6VZq2lURtkEXa-4" target="CbytgTAqb2JmNf-wiuoh-6" edge="1">
          <mxGeometry relative="1" as="geometry" />
        </mxCell>
        <mxCell id="4F5iY0-6VZq2lURtkEXa-4" value="FS_NETU" style="rounded=0;whiteSpace=wrap;html=1;" parent="1" vertex="1">
          <mxGeometry x="299" y="401" width="76" height="40" as="geometry" />
        </mxCell>
        <mxCell id="4F5iY0-6VZq2lURtkEXa-16" style="edgeStyle=orthogonalEdgeStyle;rounded=0;orthogonalLoop=1;jettySize=auto;html=1;" parent="1" source="4F5iY0-6VZq2lURtkEXa-5" target="CbytgTAqb2JmNf-wiuoh-18" edge="1">
          <mxGeometry relative="1" as="geometry" />
        </mxCell>
        <mxCell id="4F5iY0-6VZq2lURtkEXa-5" value="FS_CLP" style="rounded=0;whiteSpace=wrap;html=1;" parent="1" vertex="1">
          <mxGeometry x="580" y="338" width="76" height="40" as="geometry" />
        </mxCell>
        <mxCell id="fCqAI-CUFDNMaS2O-LkJ-1" style="edgeStyle=orthogonalEdgeStyle;rounded=0;orthogonalLoop=1;jettySize=auto;html=1;entryX=0;entryY=0.5;entryDx=0;entryDy=0;" edge="1" parent="1" source="3Ao0etTLSMylvmA7m79J-1" target="4F5iY0-6VZq2lURtkEXa-4">
          <mxGeometry relative="1" as="geometry">
            <Array as="points">
              <mxPoint x="280" y="483" />
              <mxPoint x="280" y="421" />
            </Array>
          </mxGeometry>
        </mxCell>
        <mxCell id="3Ao0etTLSMylvmA7m79J-1" value="Input Throughput" style="rounded=1;whiteSpace=wrap;html=1;fillColor=#ED2D8D;strokeColor=#A50040;arcSize=50;fontColor=#ffffff;gradientColor=none;fillStyle=auto;glass=0;shadow=0;dashed=1;" parent="1" vertex="1">
          <mxGeometry x="140" y="468" width="120" height="30" as="geometry" />
        </mxCell>
        <mxCell id="3Ao0etTLSMylvmA7m79J-5" style="edgeStyle=orthogonalEdgeStyle;rounded=0;orthogonalLoop=1;jettySize=auto;html=1;entryX=0;entryY=0.5;entryDx=0;entryDy=0;" parent="1" source="3Ao0etTLSMylvmA7m79J-2" target="4F5iY0-6VZq2lURtkEXa-4" edge="1">
          <mxGeometry relative="1" as="geometry">
            <Array as="points">
              <mxPoint x="280" y="443" />
              <mxPoint x="280" y="421" />
            </Array>
          </mxGeometry>
        </mxCell>
        <mxCell id="3Ao0etTLSMylvmA7m79J-2" value="Latency" style="rounded=1;whiteSpace=wrap;html=1;fillColor=#ED2D8D;fontColor=#ffffff;strokeColor=#A50040;arcSize=50;dashed=1;" parent="1" vertex="1">
          <mxGeometry x="140" y="428" width="120" height="30" as="geometry" />
        </mxCell>
      </root>
    </mxGraphModel>
  </diagram>
</mxfile>
